<?xml version="1.0" encoding="UTF-8" standalone="no"?>
<svg
   xmlns:dc="http://purl.org/dc/elements/1.1/"
   xmlns:cc="http://creativecommons.org/ns#"
   xmlns:rdf="http://www.w3.org/1999/02/22-rdf-syntax-ns#"
   xmlns:svg="http://www.w3.org/2000/svg"
   xmlns="http://www.w3.org/2000/svg"
   xmlns:sodipodi="http://sodipodi.sourceforge.net/DTD/sodipodi-0.dtd"
   xmlns:inkscape="http://www.inkscape.org/namespaces/inkscape"
   version="1.1"
   id="Capa_1"
   x="0px"
   y="0px"
   viewBox="0 0 50.33 50.33"
   style="enable-background:new 0 0 50.33 50.33;"
   xml:space="preserve"
   sodipodi:docname="icon_menu.svg"
   inkscape:version="1.0.1 (3bc2e813f5, 2020-09-07)"><metadata
   id="metadata17"><rdf:RDF><cc:Work
       rdf:about=""><dc:format>image/svg+xml</dc:format><dc:type
         rdf:resource="http://purl.org/dc/dcmitype/StillImage" /></cc:Work></rdf:RDF></metadata><defs
   id="defs15" /><sodipodi:namedview
   pagecolor="#ffffff"
   bordercolor="#666666"
   borderopacity="1"
   objecttolerance="10"
   gridtolerance="10"
   guidetolerance="10"
   inkscape:pageopacity="0"
   inkscape:pageshadow="2"
   inkscape:window-width="1920"
   inkscape:window-height="1017"
   id="namedview13"
   showgrid="false"
   inkscape:zoom="16.888535"
   inkscape:cx="25.165001"
   inkscape:cy="25.165001"
   inkscape:window-x="-8"
   inkscape:window-y="-8"
   inkscape:window-maximized="1"
   inkscape:current-layer="Capa_1" />
<style
   type="text/css"
   id="style2">
	.st0{fill:#242424;}
	.st1{fill:#623883;}
	.st2{fill:#E63E8E;enable-background:new    ;}
</style>
<path
   class="st0"
   d="M27.62,47.51V30.44c0-1.56,1.27-2.83,2.83-2.83h17.07c1.56,0,2.83,1.27,2.83,2.83v17.07  c0,1.56-1.27,2.83-2.83,2.83H30.44C28.88,50.33,27.62,49.07,27.62,47.51z"
   id="path4"
   style="fill:#ffffff" />
<path
   class="st1"
   d="M0,47.51V30.44c0-1.56,1.27-2.83,2.83-2.83h17.07c1.56,0,2.83,1.27,2.83,2.83v17.07c0,1.56-1.27,2.83-2.83,2.83  H2.83C1.27,50.33,0,49.07,0,47.51z"
   id="path6" />
<path
   class="st2"
   d="M27.62,19.89V2.83c0-1.56,1.27-2.83,2.83-2.83h17.07c1.56,0,2.83,1.27,2.83,2.83v17.07  c0,1.56-1.27,2.83-2.83,2.83H30.44C28.88,22.72,27.62,21.45,27.62,19.89z"
   id="path8" />
<path
   class="st0"
   d="M0,19.89V2.83C0,1.27,1.27,0,2.83,0h17.07c1.56,0,2.83,1.27,2.83,2.83v17.07c0,1.56-1.27,2.83-2.83,2.83H2.83  C1.27,22.72,0,21.45,0,19.89z"
   id="path10"
   style="fill:#ffffff" />
</svg>
